<?xml version="1.0" standalone="no"?>
<!DOCTYPE svg PUBLIC "-//W3C//DTD SVG 20010904//EN"
 "http://www.w3.org/TR/2001/REC-SVG-20010904/DTD/svg10.dtd">
<svg version="1.0" xmlns="http://www.w3.org/2000/svg"
 width="1024.000000pt" height="1024.000000pt" viewBox="0 0 1024.000000 1024.000000"
 preserveAspectRatio="xMidYMid meet">
<metadata>
Created by potrace 1.16, written by Peter Selinger 2001-2019
</metadata>
<g transform="translate(0.000000,1024.000000) scale(0.100000,-0.100000)"
fill="#000000" stroke="none">
<path d="M4855 8479 c-254 -32 -513 -113 -755 -235 -265 -134 -449 -265 -632
-451 -124 -126 -157 -166 -240 -293 -117 -178 -205 -369 -263 -566 -61 -211
-103 -546 -91 -729 10 -144 53 -434 82 -547 87 -345 275 -687 533 -973 100
-110 129 -137 256 -233 353 -269 708 -426 1106 -489 161 -25 582 -25 719 0
321 59 606 173 865 345 482 320 848 834 991 1389 52 205 66 319 66 543 1 279
-31 471 -122 734 -169 489 -515 912 -970 1186 -271 163 -587 275 -890 314
-134 18 -531 20 -655 5z m540 -329 c608 -131 1110 -595 1319 -1221 217 -653
48 -1384 -438 -1887 -313 -324 -691 -502 -1156 -543 -340 -30 -656 23 -940
157 -537 255 -893 735 -997 1349 -25 142 -24 451 1 600 100 605 458 1096 995
1364 203 102 405 167 611 196 145 21 476 13 605 -15z m1180 -408 c194 -166
392 -430 501 -668 l35 -77 -32 7 c-17 3 -48 6 -69 6 l-38 0 -36 93 c-94 243
-245 484 -410 655 -28 28 -46 52 -41 52 6 0 46 -31 90 -68z m561 -953 c24 -6
46 -15 49 -19 6 -10 55 -253 51 -257 -5 -5 -137 15 -144 21 -3 3 -16 56 -29
118 -13 62 -26 121 -29 131 -4 14 1 17 26 17 17 0 51 -5 76 -11z m88 -498 c19
-4 30 -13 32 -26 4 -27 -12 -255 -19 -262 -7 -6 -118 26 -134 39 -16 13 -15
226 0 246 10 12 70 14 121 3z m-81 -488 c55 -15 58 -18 52 -42 -7 -32 -76
-245 -81 -250 -2 -2 -43 13 -92 34 l-88 38 36 109 c20 60 42 113 50 118 22 14
56 12 123 -7z m-170 -489 c18 -9 34 -18 36 -20 4 -4 -40 -82 -90 -155 l-38
-57 -82 39 -81 40 18 27 c10 15 37 62 61 104 l44 77 50 -20 c28 -10 65 -27 82
-35z m-298 -484 l-65 -65 -62 34 c-35 19 -65 35 -67 37 -2 2 23 32 55 68 l57
64 74 -36 73 -37 -65 -65z m-297 -191 l54 -30 -85 -60 c-47 -32 -92 -59 -99
-59 -7 0 -35 14 -62 31 l-49 31 34 21 c19 12 56 38 82 59 27 21 54 38 60 38 7
0 36 -14 65 -31z m-393 -240 l49 -31 -29 -16 c-17 -8 -57 -26 -90 -39 l-60
-23 -39 27 c-22 16 -41 33 -42 38 -3 8 121 65 157 74 3 0 27 -13 54 -30z
m-413 -148 l32 -28 -65 -11 c-151 -26 -147 -26 -184 -1 -43 30 -44 39 -2 40
17 0 55 7 82 14 79 20 101 18 137 -14z m-623 -33 c130 -1 141 -2 168 -24 l28
-23 -61 -1 c-77 0 -317 27 -404 45 l-65 14 97 -5 c53 -3 160 -6 237 -6z"/>
<path d="M4935 7728 c-41 -22 -45 -37 -45 -175 0 -129 -1 -133 -21 -133 -84 0
-275 -83 -356 -155 -188 -165 -244 -467 -132 -702 62 -130 223 -252 429 -324
36 -12 69 -26 74 -30 4 -4 5 -140 1 -302 l-8 -295 -36 5 c-112 17 -247 80
-328 154 -48 44 -84 56 -118 41 -13 -6 -51 -45 -85 -87 -82 -104 -82 -124 3
-208 110 -108 308 -200 490 -229 l77 -12 1 -100 c1 -122 6 -143 43 -170 22
-17 42 -21 99 -20 124 1 147 32 147 204 l0 95 78 18 c137 30 285 116 372 214
79 89 140 253 140 378 0 72 -25 179 -58 249 -62 132 -185 226 -407 312 l-125
48 0 288 0 288 53 -21 c28 -11 88 -41 133 -65 84 -46 118 -53 147 -31 9 6 41
43 72 82 69 87 72 115 18 167 -80 78 -255 163 -395 193 l-28 5 0 123 c0 138
-8 163 -60 189 -40 20 -143 24 -175 6z m-45 -888 c0 -132 -2 -240 -5 -240 -3
0 -28 11 -56 25 -113 58 -168 140 -154 232 14 98 63 168 140 204 79 37 75 49
75 -221z m349 -749 c78 -40 120 -77 142 -126 21 -45 24 -119 8 -162 -30 -81
-110 -152 -177 -156 l-37 -2 -3 238 c-1 130 0 237 3 237 3 0 32 -13 64 -29z"/>
<path d="M7933 3436 c-165 -40 -294 -169 -357 -356 -35 -106 -50 -233 -43
-375 14 -308 139 -524 343 -596 206 -73 431 -32 565 103 178 178 239 559 138
861 -37 111 -70 168 -135 234 -117 118 -331 172 -511 129z m235 -282 c111 -46
162 -166 162 -383 0 -199 -37 -309 -126 -377 -31 -24 -48 -29 -110 -32 -40 -2
-88 1 -108 8 -53 17 -112 90 -137 169 -42 134 -34 376 15 493 21 49 73 108
111 124 41 18 148 17 193 -2z"/>
<path d="M5102 3430 c-23 -5 -47 -12 -52 -15 -25 -16 -39 -54 -314 -922 -53
-166 -96 -315 -96 -331 0 -55 28 -67 161 -70 93 -3 120 -1 123 10 2 7 14 63
27 123 l24 110 212 3 212 2 25 -82 c14 -46 29 -98 32 -116 4 -18 15 -37 25
-42 24 -13 198 -13 237 1 38 13 45 30 31 83 -21 80 -371 1161 -385 1188 -8 15
-25 35 -38 43 -28 19 -164 28 -224 15z m108 -432 c41 -135 110 -373 110 -380
0 -5 -61 -8 -136 -8 l-135 0 7 23 c32 99 124 413 124 424 0 28 9 10 30 -59z"/>
<path d="M1711 3411 c-21 -21 -21 -26 -21 -646 l0 -626 26 -25 25 -26 252 4
c243 4 255 5 330 31 185 64 300 187 347 372 36 139 44 276 26 404 -43 289
-162 440 -401 507 -47 13 -116 18 -312 22 -244 4 -252 3 -272 -17z m552 -289
c80 -40 128 -129 147 -276 22 -166 -17 -326 -100 -407 -57 -56 -102 -69 -234
-69 l-96 0 0 344 c0 189 -3 364 -6 390 l-7 48 124 -4 c106 -3 131 -6 172 -26z"/>
<path d="M2933 3420 c-12 -5 -25 -21 -29 -35 -3 -14 -5 -303 -2 -641 l3 -616
25 -20 c21 -17 37 -19 133 -16 94 3 111 6 123 22 12 17 14 121 14 642 0 597
-1 623 -19 645 -18 22 -27 24 -123 26 -56 2 -113 -2 -125 -7z"/>
<path d="M3500 3423 c-8 -3 -23 -12 -32 -21 -17 -14 -18 -58 -18 -648 l0 -633
22 -15 c17 -12 49 -16 129 -16 92 0 108 3 123 19 16 18 17 50 14 409 l-3 389
56 -106 c198 -377 381 -669 439 -698 14 -7 58 -13 98 -13 70 0 109 10 124 34
4 6 8 295 8 643 l0 632 -22 15 c-30 22 -205 23 -234 2 -18 -14 -19 -33 -24
-388 -4 -298 -7 -368 -17 -347 -35 78 -270 479 -367 627 -26 39 -61 83 -77 97
-28 23 -38 25 -117 24 -48 0 -94 -3 -102 -6z"/>
<path d="M5934 3405 l-24 -25 2 -626 3 -626 25 -20 c21 -17 36 -19 127 -16
145 4 138 -7 137 233 l-2 195 62 0 62 0 115 -201 c84 -148 122 -204 143 -216
43 -23 216 -15 245 11 12 11 21 29 21 41 0 23 -107 216 -188 338 l-50 75 43
31 c201 144 232 502 61 698 -47 53 -158 109 -246 123 -36 5 -165 10 -288 10
l-223 0 -25 -25z m486 -258 c75 -26 111 -152 74 -264 -28 -84 -49 -95 -184
-101 l-110 -5 0 145 c0 80 -3 166 -6 192 l-7 46 99 -1 c55 0 115 -5 134 -12z"/>
<path d="M7042 3414 l-22 -15 0 -635 c0 -751 -17 -674 144 -674 87 0 108 3
127 19 l24 19 3 604 c2 331 0 618 -3 635 -9 49 -45 63 -157 63 -69 0 -100 -4
-116 -16z"/>
</g>
</svg>
